<svg width="16" height="16" xmlns="http://www.w3.org/2000/svg" class="bi bi-house-door-fill" fill="currentColor">

 <g>
  <title>Layer 1</title>
  <path fill="#212529" id="svg_1" d="m6.5,14.5l0,-3.505c0,-0.245 0.25,-0.495 0.5,-0.495l2,0c0.25,0 0.5,0.25 0.5,0.5l0,3.5a0.5,0.5 0 0 0 0.5,0.5l4,0a0.5,0.5 0 0 0 0.5,-0.5l0,-7a0.5,0.5 0 0 0 -0.146,-0.354l-1.354,-1.353l0,-3.293a0.5,0.5 0 0 0 -0.5,-0.5l-1,0a0.5,0.5 0 0 0 -0.5,0.5l0,1.293l-2.646,-2.647a0.5,0.5 0 0 0 -0.708,0l-6,6a0.5,0.5 0 0 0 -0.146,0.354l0,7a0.5,0.5 0 0 0 0.5,0.5l4,0a0.5,0.5 0 0 0 0.5,-0.5z"/>
 </g>
</svg>