<svg width="16" height="16" xmlns="http://www.w3.org/2000/svg" class="bi bi-house-door" fill="currentColor">

 <g>
  <title>Layer 1</title>
  <path fill="#212529" id="svg_1" d="m8.354,1.146a0.5,0.5 0 0 0 -0.708,0l-6,6a0.5,0.5 0 0 0 -0.146,0.354l0,7a0.5,0.5 0 0 0 0.5,0.5l4.5,0a0.5,0.5 0 0 0 0.5,-0.5l0,-4l2,0l0,4a0.5,0.5 0 0 0 0.5,0.5l4.5,0a0.5,0.5 0 0 0 0.5,-0.5l0,-7a0.5,0.5 0 0 0 -0.146,-0.354l-1.354,-1.353l0,-3.293a0.5,0.5 0 0 0 -0.5,-0.5l-1,0a0.5,0.5 0 0 0 -0.5,0.5l0,1.293l-2.646,-2.647zm-5.854,12.854l0,-6.293l5.5,-5.5l5.5,5.5l0,6.293l-3.5,0l0,-4a0.5,0.5 0 0 0 -0.5,-0.5l-3,0a0.5,0.5 0 0 0 -0.5,0.5l0,4l-3.5,0z"/>
 </g>
</svg>