<svg width="16" height="16" xmlns="http://www.w3.org/2000/svg" class="bi bi-trash3" fill="currentColor">

 <g>
  <title>Layer 1</title>
  <path fill="#ff0000" id="svg_1" d="m6.5,1l3,0a0.5,0.5 0 0 1 0.5,0.5l0,1l-4,0l0,-1a0.5,0.5 0 0 1 0.5,-0.5zm4.5,1.5l0,-1a1.5,1.5 0 0 0 -1.5,-1.5l-3,0a1.5,1.5 0 0 0 -1.5,1.5l0,1l-2.494,0a0.58,0.58 0 0 0 -0.01,0l-0.996,0a0.5,0.5 0 0 0 0,1l0.538,0l0.853,10.66a2,2 0 0 0 1.994,1.84l6.23,0a2,2 0 0 0 1.994,-1.84l0.853,-10.66l0.538,0a0.5,0.5 0 0 0 0,-1l-0.995,0a0.59,0.59 0 0 0 -0.01,0l-2.495,0zm1.958,1l-0.846,10.58a1,1 0 0 1 -0.997,0.92l-6.23,0a1,1 0 0 1 -0.997,-0.92l-0.846,-10.58l9.916,0zm-7.487,1a0.5,0.5 0 0 1 0.528,0.47l0.5,8.5a0.5,0.5 0 0 1 -0.998,0.06l-0.501,-8.5a0.5,0.5 0 0 1 0.47,-0.53l0.001,0zm5.058,0a0.5,0.5 0 0 1 0.47,0.53l-0.5,8.5a0.5,0.5 0 1 1 -0.998,-0.06l0.5,-8.5a0.5,0.5 0 0 1 0.528,-0.47zm-2.529,0a0.5,0.5 0 0 1 0.5,0.5l0,8.5a0.5,0.5 0 0 1 -1,0l0,-8.5a0.5,0.5 0 0 1 0.5,-0.5z"/>
 </g>
</svg>